<svg width="14" height="14" viewBox="0 0 14 14" fill="none" xmlns="http://www.w3.org/2000/svg">
<path d="M8.75 8.75H11.6667C11.9888 8.75 12.25 8.48883 12.25 8.16667V2.33333C12.25 2.01117 11.9888 1.75 11.6667 1.75L5.83333 1.75C5.51117 1.75 5.25 2.01117 5.25 2.33333L5.25 5.25" stroke="#26DB8D" stroke-width="1.25" stroke-linecap="round" stroke-linejoin="round"/>
<path d="M2.33333 12.25L8.16667 12.25C8.48883 12.25 8.75 11.9888 8.75 11.6667L8.75 5.83333C8.75 5.51117 8.48883 5.25 8.16667 5.25L2.33333 5.25C2.01117 5.25 1.75 5.51117 1.75 5.83333L1.75 11.6667C1.75 11.9888 2.01117 12.25 2.33333 12.25Z" stroke="#26DB8D" stroke-width="1.25" stroke-linecap="round" stroke-linejoin="round"/>
</svg>
