<svg xmlns="http://www.w3.org/2000/svg" viewBox="0 0 392.3108 76.33"><defs><style>.cls-1{fill:#fff;}.cls-2{fill:#26db8d;}</style></defs><g id="Layer_2" data-name="Layer 2"><g id="Layer_1-2" data-name="Layer 1"><path class="cls-1" d="M16.1329,3.4207A18.7337,18.7337,0,0,1,20.2093.8133H0V9.4755H11.5526A17.0292,17.0292,0,0,1,16.1329,3.4207Z"/><path class="cls-2" d="M36.8672.8133H29.3623c-6.4794,0-15.8491,5.1133-15.8491,16.1929,2.42-7.5793,7.7043-7.5307,12.2517-7.5307H36.8672Z"/><path class="cls-1" d="M13.5133,17.0062v30.029h9.91V9.511C19.52,9.6782,15.5256,10.7024,13.5133,17.0062Z"/><path class="cls-1" d="M63.41,0C77.4085,0,87.595,9.9793,87.595,23.9078S77.4085,47.8163,63.41,47.8163c-13.9292,0-24.1158-9.9794-24.1158-23.9085S49.4808,0,63.41,0Zm0,8.7315c-8.5236,0-13.9985,6.514-13.9985,15.1763,0,8.5936,5.4749,15.1769,13.9985,15.1769s14.0678-6.5833,14.0678-15.1769C77.4778,15.2455,71.9335,8.7315,63.41,8.7315Z"/><path class="cls-1" d="M107.9711,28.4815l-3.6032,4.2964V46.9844H94.5272V.7625h9.8407V21.4137L120.7218.7625h12.1276l-18.3643,21.69,19.6113,24.5316H121.97Z"/><path class="cls-1" d="M138.6024.7625H171.311V9.2168H148.4431V19.2647h22.3827V27.72H148.4431V38.4608H171.311v8.5236H138.6024Z"/><path class="cls-1" d="M188.8449,15.9388V46.9844h-9.84V.7625h10.1172L210.5359,30.699V.7625h9.84V46.9844h-9.4934Z"/><path class="cls-1" d="M269.718,13.7212,256.69,46.9844h-4.2965L239.3648,13.7212V46.9844h-9.84V.7625h13.7906l11.2264,28.8282L265.7681.7625h13.8591V46.9844H269.718Z"/><path class="cls-1" d="M288.7778.7625h9.84V46.9844h-9.84Z"/><path class="cls-1" d="M317.6059,15.9388V46.9844h-9.8407V.7625h10.1172L339.2961,30.699V.7625h9.84V46.9844h-9.4933Z"/><path class="cls-1" d="M368.9568,9.4248H355.4436V.7625h36.8672V9.4248h-13.444v37.56h-9.91Z"/><path class="cls-1" d="M211.7889,58.5813h9.1751c3.32,0,5.0189,2.1177,5.0189,4.4435a3.8731,3.8731,0,0,1-3.0065,4,4.2262,4.2262,0,0,1,3.3459,4.2868c0,2.6139-1.7512,4.7055-5.071,4.7055h-9.4624Zm8.3648,7.006a1.9248,1.9248,0,1,0,0-3.8429H215.5v3.8429Zm.1305,7.2663a2.0031,2.0031,0,0,0,2.2483-2.0647,2.0375,2.0375,0,0,0-2.2483-2.0394H215.5v4.1041Z"/><path class="cls-1" d="M235.1538,68.88l-6.7179-10.2988h4.2346l4.339,7.006,4.2868-7.006h4.2355L238.8661,68.88v7.1366h-3.7123Z"/><path class="cls-1" d="M269.7053,68.6973h-8.2342v7.3194H257.76V58.5813h3.7115V65.43h8.2342V58.5813h3.7385V76.0167h-3.7385Z"/><path class="cls-1" d="M287.0843,58.294a9.0183,9.0183,0,1,1-9.0968,9.0185A8.7605,8.7605,0,0,1,287.0843,58.294Zm0,3.2937c-3.2153,0-5.28,2.4572-5.28,5.7248,0,3.2406,2.0647,5.7239,5.28,5.7239s5.3061-2.4833,5.3061-5.7239C292.39,64.0449,290.3,61.5877,287.0843,61.5877Z"/><path class="cls-1" d="M307.2077,69.77h-2.7183v6.247H300.777V58.5813h8.1559c3.6331,0,5.8553,2.3788,5.8553,5.62a5.0022,5.0022,0,0,1-3.8168,5.1755l3.9213,6.64h-4.2608Zm1.176-7.9992h-3.8943v4.81h3.8943a2.4133,2.4133,0,1,0,0-4.81Z"/><path class="cls-1" d="M319.5417,58.5813h3.7123V76.0167h-3.7123Z"/><path class="cls-1" d="M328.0345,73.01l8.2342-11.1615h-8.2342V58.5813h13.0963v2.98l-8.2341,11.1875h8.4169v3.2676H328.0345Z"/><path class="cls-1" d="M346.0941,58.5813h12.3382v3.1892h-8.6267v3.79H358.25V68.75h-8.4439v4.0518h8.6267v3.2154H346.0941Z"/><path class="cls-1" d="M367.0018,64.306V76.0167H363.29V58.5813h3.8168l8.0766,11.2928V58.5813h3.7123V76.0167h-3.5817Z"/></g></g></svg>