<svg width="80" height="80" viewBox="0 0 80 80" fill="none" xmlns="http://www.w3.org/2000/svg">
<path d="M39.9851 78.82C61.4802 78.82 78.9055 61.3947 78.9055 39.8996C78.9055 18.4044 61.4802 0.979187 39.9851 0.979187C18.49 0.979187 1.0647 18.4044 1.0647 39.8996C1.0647 61.3947 18.49 78.82 39.9851 78.82Z" fill="#0C0C1C"/>
<path d="M39.9854 79.4795C18.1602 79.4795 0.404297 61.7241 0.404297 39.8994C0.404297 18.0747 18.1602 0.319275 39.9854 0.319275C61.8106 0.319275 79.5645 18.0747 79.5645 39.8994C79.5645 61.7241 61.8096 79.4795 39.9854 79.4795ZM39.9854 1.63867C18.8877 1.63867 1.7236 18.8022 1.7236 39.8994C1.7236 60.9966 18.8877 78.1601 39.9853 78.1601C61.0829 78.1601 78.246 60.9965 78.246 39.8994C78.246 18.8023 61.082 1.63867 39.9854 1.63867Z" fill="#26DB8D"/>
<path d="M39.9855 61.009L22.847 51.114V31.324L39.9855 21.4283L57.124 31.324V51.114L39.9855 61.009ZM24.826 49.9712L39.9855 58.7234L55.145 49.9712V32.4668L39.9855 23.714L24.826 32.4668V49.9712Z" fill="white"/>
<path d="M39.9851 30.6642C44.357 30.6642 47.9011 27.1201 47.9011 22.7482C47.9011 18.3763 44.357 14.8322 39.9851 14.8322C35.6132 14.8322 32.0691 18.3763 32.0691 22.7482C32.0691 27.1201 35.6132 30.6642 39.9851 30.6642Z" fill="white"/>
<path d="M39.9855 31.6538C35.0754 31.6538 31.08 27.6591 31.08 22.7483C31.08 17.8375 35.0754 13.8428 39.9855 13.8428C44.8956 13.8428 48.891 17.8375 48.891 22.7483C48.891 27.6591 44.8956 31.6538 39.9855 31.6538ZM39.9855 15.8218C36.1666 15.8218 33.059 18.9288 33.059 22.7483C33.059 26.5678 36.1667 29.6748 39.9855 29.6748C43.8043 29.6748 46.912 26.5678 46.912 22.7483C46.912 18.9288 43.8043 15.8218 39.9855 15.8218Z" fill="#0E9DE5"/>
<path d="M24.1532 58.3702C28.5251 58.3702 32.0692 54.8261 32.0692 50.4542C32.0692 46.0823 28.5251 42.5382 24.1532 42.5382C19.7813 42.5382 16.2372 46.0823 16.2372 50.4542C16.2372 54.8261 19.7813 58.3702 24.1532 58.3702Z" fill="white"/>
<path d="M24.1535 59.3599C19.2434 59.3599 15.248 55.3652 15.248 50.4544C15.248 45.5436 19.2434 41.5489 24.1535 41.5489C29.0636 41.5489 33.059 45.5436 33.059 50.4544C33.059 55.3652 29.0636 59.3599 24.1535 59.3599ZM24.1535 43.5279C20.3346 43.5279 17.227 46.6349 17.227 50.4544C17.227 54.2739 20.3347 57.3809 24.1535 57.3809C27.9723 57.3809 31.08 54.2739 31.08 50.4544C31.08 46.6349 27.9723 43.5279 24.1535 43.5279Z" fill="#0E9DE5"/>
<path d="M55.8171 58.3702C60.189 58.3702 63.7331 54.8261 63.7331 50.4542C63.7331 46.0823 60.189 42.5382 55.8171 42.5382C51.4452 42.5382 47.9011 46.0823 47.9011 50.4542C47.9011 54.8261 51.4452 58.3702 55.8171 58.3702Z" fill="white"/>
<path d="M55.8175 59.3599C50.9074 59.3599 46.912 55.3652 46.912 50.4544C46.912 45.5436 50.9074 41.5489 55.8175 41.5489C60.7276 41.5489 64.723 45.5436 64.723 50.4544C64.723 55.3652 60.7276 59.3599 55.8175 59.3599ZM55.8175 43.5279C51.9986 43.5279 48.891 46.6349 48.891 50.4544C48.891 54.2739 51.9987 57.3809 55.8175 57.3809C59.6363 57.3809 62.744 54.2739 62.744 50.4544C62.744 46.6349 59.6363 43.5279 55.8175 43.5279Z" fill="#0E9DE5"/>
<path fill-rule="evenodd" clip-rule="evenodd" d="M33.9866 64.1423L34.9761 62.4285L39.9851 65.3203L44.9941 62.4285L45.9836 64.1423L39.9851 67.6056L33.9866 64.1423ZM62.6598 34.2924H60.6808V28.5084L55.6718 25.6164L56.6613 23.9026L62.6598 27.3659V34.2924ZM17.3103 34.2924H19.2893V28.5084L24.2983 25.6164L23.3088 23.9026L17.3103 27.3659V34.2924Z" fill="#26DB8D"/>
</svg>
