<?xml version="1.0" encoding="UTF-8"?><svg id="Layer_2" xmlns="http://www.w3.org/2000/svg" xmlns:xlink="http://www.w3.org/1999/xlink" viewBox="0 0 791.609 348.6287"><defs><style>.cls-1{fill:url(#linear-gradient);}.cls-2{fill:#fff;}.cls-3{fill:#1d202d;}.cls-4{fill:#898d9d;}.cls-5{fill:#7a7e89;}.cls-6{fill:url(#linear-gradient-8);}.cls-7{fill:url(#linear-gradient-9);}.cls-8{fill:url(#linear-gradient-3);}.cls-9{fill:url(#linear-gradient-4);}.cls-10{fill:url(#linear-gradient-2);}.cls-11{fill:url(#linear-gradient-6);}.cls-12{fill:url(#linear-gradient-7);}.cls-13{fill:url(#linear-gradient-5);}.cls-14{opacity:.3;}.cls-15{opacity:.7;}.cls-16{fill:url(#linear-gradient-14);}.cls-17{fill:url(#linear-gradient-18);}.cls-18{fill:url(#linear-gradient-22);}.cls-19{fill:url(#linear-gradient-20);}.cls-20{fill:url(#linear-gradient-21);}.cls-21{fill:url(#linear-gradient-23);}.cls-22{fill:url(#linear-gradient-15);}.cls-23{fill:url(#linear-gradient-19);}.cls-24{fill:url(#linear-gradient-16);}.cls-25{fill:url(#linear-gradient-17);}.cls-26{fill:url(#linear-gradient-13);}.cls-27{fill:url(#linear-gradient-12);}.cls-28{fill:url(#linear-gradient-10);}.cls-29{fill:url(#linear-gradient-11);}.cls-30{fill:url(#linear-gradient-27);}.cls-31{fill:url(#linear-gradient-24);}.cls-32{fill:url(#linear-gradient-26);}.cls-33{fill:url(#linear-gradient-25);}.cls-34{fill:url(#linear-gradient-28);}</style><linearGradient id="linear-gradient" x1=".3753" y1="223.032" x2="128.5997" y2="223.032" gradientTransform="matrix(1, 0, 0, 1, 0, 0)" gradientUnits="userSpaceOnUse"><stop offset="0" stop-color="#fff"/><stop offset="1" stop-color="#e3f2ff" stop-opacity=".9"/></linearGradient><linearGradient id="linear-gradient-2" x1="117.5069" x2="230.4286" xlink:href="#linear-gradient"/><linearGradient id="linear-gradient-3" x1="234.6385" x2="332.2574" xlink:href="#linear-gradient"/><linearGradient id="linear-gradient-4" x1="351.7701" x2="439.8391" xlink:href="#linear-gradient"/><linearGradient id="linear-gradient-5" x1="459.3519" x2="556.9707" xlink:href="#linear-gradient"/><linearGradient id="linear-gradient-6" x1="561.1807" x2="674.1023" xlink:href="#linear-gradient"/><linearGradient id="linear-gradient-7" x1="663.0095" x2="791.2339" xlink:href="#linear-gradient"/><linearGradient id="linear-gradient-8" x1=".3753" y1="275.6973" x2="88.4443" y2="275.6973" gradientTransform="matrix(1, 0, 0, 1, 0, 0)" gradientUnits="userSpaceOnUse"><stop offset="0" stop-color="#0e9de5" stop-opacity="0"/><stop offset=".1561" stop-color="#0e9de5" stop-opacity=".0253"/><stop offset=".3607" stop-color="#0e9de5" stop-opacity=".0972"/><stop offset=".5923" stop-color="#0e9de5" stop-opacity=".2156"/><stop offset=".8418" stop-color="#0e9de5" stop-opacity=".3794"/><stop offset=".9996" stop-color="#0e9de5" stop-opacity=".5"/></linearGradient><linearGradient id="linear-gradient-9" x1="117.5069" x2="205.5759" xlink:href="#linear-gradient-8"/><linearGradient id="linear-gradient-10" x1="234.6385" x2="322.7075" xlink:href="#linear-gradient-8"/><linearGradient id="linear-gradient-11" x1="351.7701" x2="439.8391" xlink:href="#linear-gradient-8"/><linearGradient id="linear-gradient-12" x1="468.9017" x2="556.9707" xlink:href="#linear-gradient-8"/><linearGradient id="linear-gradient-13" x1="586.0333" x2="674.1023" xlink:href="#linear-gradient-8"/><linearGradient id="linear-gradient-14" x1="703.1649" x2="791.2339" xlink:href="#linear-gradient-8"/><linearGradient id="linear-gradient-15" x1="105.9794" y1="58.3087" x2="199.96" y2="58.3087" xlink:href="#linear-gradient"/><linearGradient id="linear-gradient-16" x1="191.8296" y1="58.3087" x2="274.5942" y2="58.3087" xlink:href="#linear-gradient"/><linearGradient id="linear-gradient-17" x1="277.6798" y1="58.3087" x2="349.2284" y2="58.3087" xlink:href="#linear-gradient"/><linearGradient id="linear-gradient-18" x1="363.5301" y1="58.3087" x2="428.0792" y2="58.3087" xlink:href="#linear-gradient"/><linearGradient id="linear-gradient-19" x1="442.3808" y1="58.3087" x2="513.9294" y2="58.3087" xlink:href="#linear-gradient"/><linearGradient id="linear-gradient-20" x1="517.015" y1="58.3087" x2="599.7796" y2="58.3087" xlink:href="#linear-gradient"/><linearGradient id="linear-gradient-21" x1="591.6493" y1="58.3087" x2="685.6298" y2="58.3087" xlink:href="#linear-gradient"/><linearGradient id="linear-gradient-22" x1="105.9794" y1="96.9091" x2="170.5285" y2="96.9091" gradientTransform="matrix(1, 0, 0, 1, 0, 0)" gradientUnits="userSpaceOnUse"><stop offset="0" stop-color="#26db8d" stop-opacity="0"/><stop offset=".1605" stop-color="#26db8d" stop-opacity=".0264"/><stop offset=".3708" stop-color="#26db8d" stop-opacity=".1016"/><stop offset=".6089" stop-color="#26db8d" stop-opacity=".2254"/><stop offset=".8655" stop-color="#26db8d" stop-opacity=".3967"/><stop offset=".9996" stop-color="#26db8d" stop-opacity=".5"/></linearGradient><linearGradient id="linear-gradient-23" x1="191.8296" x2="256.3787" xlink:href="#linear-gradient-22"/><linearGradient id="linear-gradient-24" x1="277.6798" x2="342.2289" xlink:href="#linear-gradient-22"/><linearGradient id="linear-gradient-25" x1="363.5301" x2="428.0792" xlink:href="#linear-gradient-22"/><linearGradient id="linear-gradient-26" x1="449.3803" x2="513.9294" xlink:href="#linear-gradient-22"/><linearGradient id="linear-gradient-27" x1="535.2305" x2="599.7796" xlink:href="#linear-gradient-22"/><linearGradient id="linear-gradient-28" x1="621.0807" x2="685.6298" xlink:href="#linear-gradient-22"/></defs><g id="Layer_1-2"><g><g><path class="cls-5" d="M315.0833,146.1658h-2.7314v-1.751h7.4521v1.751h-2.7178v7.5928h-2.0029v-7.5928Z"/><path class="cls-5" d="M327.9642,144.2615c2.8291,0,4.8887,2.0166,4.8887,4.832s-2.0596,4.833-4.8887,4.833c-2.8154,0-4.875-2.0176-4.875-4.833s2.0596-4.832,4.875-4.832Zm0,1.7646c-1.7227,0-2.8291,1.3164-2.8291,3.0674,0,1.7373,1.1064,3.0684,2.8291,3.0684s2.8438-1.3311,2.8438-3.0684c0-1.751-1.1211-3.0674-2.8438-3.0674Z"/><path class="cls-5" d="M339.7659,150.0183l-.7285,.8682v2.8721h-1.9893v-9.3438h1.9893v4.1748l3.3057-4.1748h2.4512l-3.7119,4.3848,3.9639,4.959h-2.4512l-2.8291-3.7402Z"/><path class="cls-5" d="M348.7513,144.4148h6.6123v1.709h-4.623v2.0312h4.5244v1.709h-4.5244v2.1709h4.623v1.7236h-6.6123v-9.3438Z"/><path class="cls-5" d="M361.7024,147.4832v6.2754h-1.9893v-9.3438h2.0459l4.3281,6.0518v-6.0518h1.9893v9.3438h-1.9189l-4.4551-6.2754Z"/><path class="cls-5" d="M380.844,147.0349l-2.6338,6.7236h-.8682l-2.6338-6.7236v6.7236h-1.9893v-9.3438h2.7881l2.2695,5.8271,2.2686-5.8271h2.8018v9.3438h-2.0029v-6.7236Z"/><path class="cls-5" d="M387.4895,144.4148h1.9893v9.3438h-1.9893v-9.3438Z"/><path class="cls-5" d="M396.1145,147.4832v6.2754h-1.9893v-9.3438h2.0449l4.3281,6.0518v-6.0518h1.9893v9.3438h-1.9189l-4.4541-6.2754Z"/><path class="cls-5" d="M409.2884,146.1658h-2.7314v-1.751h7.4521v1.751h-2.7178v7.5928h-2.0029v-7.5928Z"/><path class="cls-5" d="M424.0149,149.0935c0-2.8711,2.1709-4.832,4.9023-4.832,2.1289,0,3.3203,1.1201,3.9785,2.2832l-1.709,.8398c-.3926-.7559-1.2324-1.3584-2.2695-1.3584-1.625,0-2.8574,1.3027-2.8574,3.0674,0,1.7656,1.2324,3.0684,2.8574,3.0684,1.0371,0,1.877-.5889,2.2695-1.3594l1.709,.8271c-.6729,1.1621-1.8496,2.2969-3.9785,2.2969-2.7314,0-4.9023-1.9609-4.9023-4.833Z"/><path class="cls-5" d="M443.2825,149.8367h-4.4131v3.9219h-1.9893v-9.3438h1.9893v3.6709h4.4131v-3.6709h2.0029v9.3438h-2.0029v-3.9219Z"/><path class="cls-5" d="M455.8684,152.1472h-4.1748l-.5879,1.6113h-2.1855l3.6143-9.3438h2.4932l3.5996,9.3438h-2.1709l-.5879-1.6113Zm-3.6426-1.7227h3.0957l-1.541-4.2861-1.5547,4.2861Z"/><path class="cls-5" d="M462.2903,144.4148h1.9893v9.3438h-1.9893v-9.3438Z"/><path class="cls-5" d="M470.9153,147.4832v6.2754h-1.9893v-9.3438h2.0459l4.3281,6.0518v-6.0518h1.9893v9.3438h-1.9189l-4.4551-6.2754Z"/></g><g><path class="cls-5" d="M266.3528,344.5388h-4.4131v3.9219h-1.9893v-9.3428h1.9893v3.6699h4.4131v-3.6699h2.002v9.3428h-2.002v-3.9219Z"/><path class="cls-5" d="M277.4114,338.9636c2.8281,0,4.8887,2.0176,4.8887,4.833s-2.0605,4.832-4.8887,4.832c-2.8164,0-4.875-2.0166-4.875-4.832s2.0586-4.833,4.875-4.833Zm0,1.7646c-1.7236,0-2.8301,1.3174-2.8301,3.0684,0,1.7363,1.1064,3.0674,2.8301,3.0674,1.7227,0,2.8428-1.3311,2.8428-3.0674,0-1.751-1.1201-3.0684-2.8428-3.0684Z"/><path class="cls-5" d="M289.9407,345.113h-1.457v3.3477h-1.9893v-9.3428h4.3701c1.9473,0,3.1387,1.2744,3.1387,3.0117,0,1.6523-1.0371,2.5352-2.0449,2.7734l2.1006,3.5576h-2.2832l-1.835-3.3477Zm.6299-4.2861h-2.0869v2.5771h2.0869c.7988,0,1.4014-.5039,1.4014-1.2881,0-.7852-.6025-1.2891-1.4014-1.2891Z"/><path class="cls-5" d="M298.2962,339.1179h1.9893v9.3428h-1.9893v-9.3428Z"/><path class="cls-5" d="M304.596,346.8503l4.4121-5.9814h-4.4121v-1.751h7.0176v1.5967l-4.4121,5.9951h4.5107v1.751h-7.1162v-1.6104Z"/><path class="cls-5" d="M316.0198,339.1179h6.6123v1.709h-4.623v2.0312h4.5244v1.709h-4.5244v2.1709h4.623v1.7227h-6.6123v-9.3428Z"/><path class="cls-5" d="M328.971,342.1853v6.2754h-1.9893v-9.3428h2.0449l4.3281,6.0508v-6.0508h1.9902v9.3428h-1.9199l-4.4541-6.2754Z"/><path class="cls-5" d="M346.3714,339.1179h4.3701c2.0312,0,3.1387,1.373,3.1387,3.0117,0,1.625-1.1211,2.9834-3.1387,2.9834h-2.3809v3.3477h-1.9893v-9.3428Zm4.1045,1.709h-2.1152v2.5771h2.1152c.7842,0,1.373-.5039,1.373-1.2881,0-.7705-.5889-1.2891-1.373-1.2891Z"/><path class="cls-5" d="M357.9075,339.1179h2.0176v5.5469c0,1.3027,.7139,2.1992,2.1709,2.1992,1.4287,0,2.1436-.8965,2.1436-2.1992v-5.5469h2.0166v5.6025c0,2.3262-1.3311,3.9082-4.1602,3.9082-2.8574,0-4.1885-1.5967-4.1885-3.8936v-5.6172Z"/><path class="cls-5" d="M370.8997,339.1179h4.917c1.7783,0,2.6895,1.1348,2.6895,2.3809,0,1.1768-.7285,1.9619-1.6104,2.1436,.9941,.1543,1.793,1.1201,1.793,2.2969,0,1.4014-.9395,2.5215-2.7188,2.5215h-5.0703v-9.3428Zm4.4824,3.7539c.6719,0,1.0928-.4346,1.0928-1.0361,0-.5742-.4209-1.0225-1.0928-1.0225h-2.4932v2.0586h2.4932Zm.0703,3.8945c.7559,0,1.2051-.4346,1.2051-1.1074,0-.5879-.4209-1.0918-1.2051-1.0918h-2.5635v2.1992h2.5635Z"/><path class="cls-5" d="M382.9817,339.1179h1.9883v7.5918h3.9512v1.751h-5.9395v-9.3428Z"/><path class="cls-5" d="M393.1028,339.1179h1.9902v9.3428h-1.9902v-9.3428Z"/><path class="cls-5" d="M399.2903,343.7966c0-2.8721,2.1719-4.833,4.9033-4.833,2.1299,0,3.3193,1.1211,3.9775,2.2832l-1.709,.8408c-.3916-.7568-1.2324-1.3594-2.2686-1.3594-1.625,0-2.8574,1.3027-2.8574,3.0684,0,1.7646,1.2324,3.0674,2.8574,3.0674,1.0361,0,1.877-.5879,2.2686-1.3584l1.709,.8262c-.6719,1.1631-1.8477,2.2969-3.9775,2.2969-2.7314,0-4.9033-1.9609-4.9033-4.832Z"/><path class="cls-5" d="M418.5403,339.1179h4.918c1.7783,0,2.6895,1.1348,2.6895,2.3809,0,1.1768-.7285,1.9619-1.6113,2.1436,.9941,.1543,1.793,1.1201,1.793,2.2969,0,1.4014-.9385,2.5215-2.7178,2.5215h-5.0713v-9.3428Zm4.4824,3.7539c.6729,0,1.0938-.4346,1.0938-1.0361,0-.5742-.4209-1.0225-1.0938-1.0225h-2.4922v2.0586h2.4922Zm.0703,3.8945c.7568,0,1.2051-.4346,1.2051-1.1074,0-.5879-.4199-1.0918-1.2051-1.0918h-2.5625v2.1992h2.5625Z"/><path class="cls-5" d="M430.6224,339.1179h1.9902v7.5918h3.9492v1.751h-5.9395v-9.3428Z"/><path class="cls-5" d="M444.7942,338.9636c2.8281,0,4.8887,2.0176,4.8887,4.833s-2.0605,4.832-4.8887,4.832c-2.8164,0-4.875-2.0166-4.875-4.832s2.0586-4.833,4.875-4.833Zm0,1.7646c-1.7236,0-2.8301,1.3174-2.8301,3.0684,0,1.7363,1.1064,3.0674,2.8301,3.0674,1.7227,0,2.8428-1.3311,2.8428-3.0674,0-1.751-1.1201-3.0684-2.8428-3.0684Z"/><path class="cls-5" d="M453.429,343.7966c0-2.8721,2.1709-4.833,4.9023-4.833,2.1289,0,3.3203,1.1211,3.9785,2.2832l-1.709,.8408c-.3926-.7568-1.2324-1.3594-2.2695-1.3594-1.625,0-2.8574,1.3027-2.8574,3.0684,0,1.7646,1.2324,3.0674,2.8574,3.0674,1.0371,0,1.877-.5879,2.2695-1.3584l1.709,.8262c-.6729,1.1631-1.8496,2.2969-3.9785,2.2969-2.7314,0-4.9023-1.9609-4.9023-4.832Z"/><path class="cls-5" d="M469.013,344.7205l-.7285,.8691v2.8711h-1.9902v-9.3428h1.9902v4.1738l3.3047-4.1738h2.4521l-3.7119,4.3848,3.9639,4.958h-2.4512l-2.8291-3.7402Z"/><path class="cls-5" d="M476.9905,343.7966c0-2.8721,2.1709-4.833,4.9033-4.833,2.1289,0,3.3193,1.1211,3.9775,2.2832l-1.709,.8408c-.3916-.7568-1.2324-1.3594-2.2686-1.3594-1.625,0-2.8574,1.3027-2.8574,3.0684,0,1.7646,1.2324,3.0674,2.8574,3.0674,1.0361,0,1.877-.5879,2.2686-1.3584l1.709,.8262c-.6729,1.1631-1.8486,2.2969-3.9775,2.2969-2.7324,0-4.9033-1.9609-4.9033-4.832Z"/><path class="cls-5" d="M496.2591,344.5388h-4.4131v3.9219h-1.9893v-9.3428h1.9893v3.6699h4.4131v-3.6699h2.002v9.3428h-2.002v-3.9219Z"/><path class="cls-5" d="M508.844,346.8503h-4.1748l-.5879,1.6104h-2.1855l3.6143-9.3428h2.4932l3.5996,9.3428h-2.1709l-.5879-1.6104Zm-3.6416-1.7236h3.0957l-1.541-4.2861-1.5547,4.2861Z"/><path class="cls-5" d="M515.2669,339.1179h1.9883v9.3428h-1.9883v-9.3428Z"/><path class="cls-5" d="M523.8919,342.1853v6.2754h-1.9902v-9.3428h2.0459l4.3281,6.0508v-6.0508h1.9893v9.3428h-1.9189l-4.4541-6.2754Z"/></g><g><g><g class="cls-15"><g class="cls-14"><polygon class="cls-3" points="52.0367 290.9644 .3753 319.6736 88.4443 319.6736 128.5997 290.9644 52.0367 290.9644"/><path class="cls-2" d="M88.4446,320.0486H.3753c-.1709,0-.3203-.1152-.3633-.2812-.043-.165,.0322-.3389,.1807-.4219l51.6611-28.709c.0566-.0303,.1191-.0469,.1826-.0469h76.5635c.1631,0,.3076,.1055,.3574,.2607s-.0068,.3242-.1396,.4189l-40.1553,28.709c-.0635,.0459-.1396,.0703-.2178,.0703Zm-86.6221-.75H88.3245l39.1064-27.959H52.1341L1.8226,319.2986Z"/></g><g class="cls-15"><polygon class="cls-3" points="117.5069 319.6736 153.8655 290.9644 230.4286 290.9644 205.5759 319.6736 117.5069 319.6736"/><path class="cls-2" d="M205.5755,320.0486H117.5071c-.1602,0-.3018-.1016-.3545-.252-.0518-.1514-.0029-.3184,.1221-.417l36.3584-28.709c.0664-.0527,.1484-.0811,.2324-.0811h76.5635c.1465,0,.2803,.0859,.3408,.2188,.0615,.1338,.0391,.291-.0576,.4014l-24.8535,28.709c-.0713,.083-.1748,.1299-.2832,.1299Zm-86.9883-.75h86.8174l24.2041-27.959h-75.6133l-35.4082,27.959Z"/></g><g><polygon class="cls-3" points="255.6943 290.9644 234.6385 319.6736 322.7075 319.6736 332.2574 290.9644 255.6943 290.9644"/><path class="cls-2" d="M322.7073,320.0486h-88.0684c-.1416,0-.2705-.0791-.335-.2051-.0635-.127-.0508-.2773,.0322-.3916l21.0557-28.709c.0713-.0967,.1836-.1533,.3027-.1533h76.5625c.1201,0,.2334,.0576,.3037,.1553,.0713,.0977,.0898,.2236,.0518,.3379l-9.5498,28.709c-.0508,.1533-.1943,.2568-.3555,.2568Zm-87.3281-.75h87.0576l9.3008-27.959h-75.8525l-20.5059,27.959Z"/></g><g><polygon class="cls-3" points="357.5231 290.9644 351.7701 319.6736 439.8391 319.6736 434.0862 290.9644 357.5231 290.9644"/><path class="cls-2" d="M439.8392,320.0486h-88.0693c-.1123,0-.2188-.0508-.29-.1377s-.0996-.2012-.0781-.3105l5.7529-28.709c.0352-.1758,.1895-.3018,.3682-.3018h76.5635c.1787,0,.333,.126,.3682,.3018l5.7529,28.709c.0215,.1094-.0068,.2236-.0781,.3105s-.1777,.1377-.29,.1377Zm-87.6113-.75h87.1533l-5.6025-27.959h-75.9482l-5.6025,27.959Z"/></g><g><polygon class="cls-3" points="459.3519 290.9644 468.9017 319.6736 556.9707 319.6736 535.915 290.9644 459.3519 290.9644"/><path class="cls-2" d="M556.971,320.0486h-88.0693c-.1611,0-.3047-.1035-.3555-.2568l-9.5498-28.709c-.0381-.1143-.0195-.2402,.0518-.3379,.0703-.0977,.1836-.1553,.3037-.1553h76.5635c.1191,0,.2314,.0566,.3027,.1533l21.0557,28.709c.083,.1143,.0957,.2646,.0322,.3916-.0645,.126-.1934,.2051-.335,.2051Zm-87.7988-.75h87.0586l-20.5059-27.959h-75.8535l9.3008,27.959Z"/></g><g class="cls-15"><polygon class="cls-3" points="561.1807 290.9644 586.0333 319.6736 674.1023 319.6736 637.7438 290.9644 561.1807 290.9644"/><path class="cls-2" d="M674.1018,320.0486h-88.0684c-.1084,0-.2119-.0469-.2832-.1299l-24.8525-28.709c-.0967-.1104-.1191-.2676-.0576-.4014,.0605-.1328,.1943-.2188,.3408-.2188h76.5625c.084,0,.166,.0283,.2324,.0811l36.3584,28.709c.125,.0986,.1738,.2656,.1221,.417-.0527,.1504-.1943,.252-.3545,.252Zm-87.8975-.75h86.8174l-35.4082-27.959h-75.6123l24.2031,27.959Z"/></g><g class="cls-14"><polygon class="cls-3" points="703.1649 319.6736 663.0095 290.9644 739.5726 290.9644 791.2339 319.6736 703.1649 319.6736"/><path class="cls-2" d="M791.2337,320.0486h-88.0684c-.0781,0-.1543-.0244-.2178-.0703l-40.1562-28.709c-.1328-.0947-.1895-.2637-.1396-.4189s.1943-.2607,.3574-.2607h76.5635c.0635,0,.126,.0166,.1826,.0469l51.6611,28.709c.1484,.083,.2236,.2568,.1807,.4219-.043,.166-.1924,.2812-.3633,.2812Zm-87.9482-.75h86.501l-50.3115-27.959h-75.2969l39.1074,27.959Z"/></g></g><g><g class="cls-14"><path class="cls-2" d="M128.5999,291.1804H52.0364c-.1191,0-.2158-.0967-.2158-.2158v-76.5635c0-.1191,.0967-.2158,.2158-.2158h76.5635c.1191,0,.2158,.0967,.2158,.2158v76.5635c0,.1191-.0967,.2158-.2158,.2158Zm-76.3477-.4316h76.1318v-76.1318H52.2522v76.1318Z"/></g><g class="cls-15"><path class="cls-2" d="M230.429,291.1804h-76.5635c-.1191,0-.2158-.0967-.2158-.2158v-76.5635c0-.1191,.0967-.2158,.2158-.2158h76.5635c.1191,0,.2158,.0967,.2158,.2158v76.5635c0,.1191-.0967,.2158-.2158,.2158Zm-76.3477-.4316h76.1318v-76.1318h-76.1318v76.1318Z"/></g><path class="cls-2" d="M332.2571,291.1804h-76.5625c-.1191,0-.2158-.0967-.2158-.2158v-76.5635c0-.1191,.0967-.2158,.2158-.2158h76.5625c.1191,0,.2158,.0967,.2158,.2158v76.5635c0,.1191-.0967,.2158-.2158,.2158Zm-76.3467-.4316h76.1309v-76.1318h-76.1309v76.1318Z"/><path class="cls-2" d="M434.0862,291.1804h-76.5635c-.1191,0-.2158-.0967-.2158-.2158v-76.5635c0-.1191,.0967-.2158,.2158-.2158h76.5635c.1191,0,.2158,.0967,.2158,.2158v76.5635c0,.1191-.0967,.2158-.2158,.2158Zm-76.3477-.4316h76.1318v-76.1318h-76.1318v76.1318Z"/><path class="cls-2" d="M535.9153,291.1804h-76.5635c-.1191,0-.2158-.0967-.2158-.2158v-76.5635c0-.1191,.0967-.2158,.2158-.2158h76.5635c.1191,0,.2158,.0967,.2158,.2158v76.5635c0,.1191-.0967,.2158-.2158,.2158Zm-76.3477-.4316h76.1318v-76.1318h-76.1318v76.1318Z"/><g class="cls-15"><path class="cls-2" d="M637.7434,291.1804h-76.5625c-.1191,0-.2158-.0967-.2158-.2158v-76.5635c0-.1191,.0967-.2158,.2158-.2158h76.5625c.1191,0,.2158,.0967,.2158,.2158v76.5635c0,.1191-.0967,.2158-.2158,.2158Zm-76.3467-.4316h76.1309v-76.1318h-76.1309v76.1318Z"/></g><g class="cls-14"><path class="cls-2" d="M739.5726,291.1804h-76.5635c-.1191,0-.2158-.0967-.2158-.2158v-76.5635c0-.1191,.0967-.2158,.2158-.2158h76.5635c.1191,0,.2158,.0967,.2158,.2158v76.5635c0,.1191-.0967,.2158-.2158,.2158Zm-76.3477-.4316h76.1318v-76.1318h-76.1318v76.1318Z"/></g></g><g><g class="cls-14"><polygon class="cls-1" points="52.0367 214.4013 .3753 231.6628 88.4443 231.6628 128.5997 214.4013 52.0367 214.4013"/><path class="cls-2" d="M88.4446,231.8435H.3753c-.0889,0-.1641-.0645-.1787-.1514-.0137-.0879,.0371-.1729,.1211-.2002l51.6611-17.2617c.0186-.0068,.0381-.0098,.0576-.0098h76.5635c.0859,0,.1602,.0605,.1768,.1445,.0176,.084-.0264,.168-.1055,.2021l-40.1553,17.2617c-.0225,.0098-.0469,.0146-.0713,.0146Zm-86.958-.3613H88.4075l39.3145-16.9004H52.0657L1.4866,231.4822Z"/></g><g class="cls-15"><polygon class="cls-10" points="117.5069 231.6628 153.8655 214.4013 230.4286 214.4013 205.5759 231.6628 117.5069 231.6628"/><path class="cls-2" d="M205.5755,231.8435H117.5071c-.085,0-.1572-.0586-.1758-.1406-.0195-.083,.0215-.167,.0986-.2031l36.3584-17.2617c.0234-.0117,.0508-.0176,.0771-.0176h76.5635c.0791,0,.1484,.0518,.1729,.127,.0234,.0752-.0049,.1572-.0693,.2021l-24.8535,17.2617c-.0303,.0205-.0664,.0322-.1035,.0322Zm-87.2666-.3613h87.21l24.333-16.9004h-75.9453l-35.5977,16.9004Z"/></g><g><polygon class="cls-8" points="255.6943 214.4013 234.6385 231.6628 322.7075 231.6628 332.2574 214.4013 255.6943 214.4013"/><path class="cls-2" d="M322.7073,231.8435h-88.0684c-.0762,0-.1445-.0479-.1699-.1201-.0264-.0713-.0039-.1523,.0557-.2002l21.0557-17.2617c.0322-.0264,.0723-.041,.1143-.041h76.5625c.0645,0,.123,.0342,.1553,.0889,.0332,.0547,.0342,.123,.0029,.1797l-9.5498,17.2617c-.0322,.0566-.0928,.0928-.1582,.0928Zm-87.5625-.3613h87.4561l9.3496-16.9004h-76.1914l-20.6143,16.9004Z"/></g><g><polygon class="cls-9" points="357.5231 214.4013 351.7701 231.6628 439.8391 231.6628 434.0862 214.4013 357.5231 214.4013"/><path class="cls-2" d="M439.8392,231.8435h-88.0693c-.0576,0-.1123-.0283-.1465-.0752s-.043-.1074-.0254-.1621l5.7529-17.2627c.0254-.0732,.0938-.123,.1719-.123h76.5635c.0781,0,.1465,.0498,.1719,.123l5.7529,17.2627c.0176,.0547,.0088,.1152-.0254,.1621s-.0889,.0752-.1465,.0752Zm-87.8184-.3613h87.5674l-5.6318-16.9004h-76.3037l-5.6318,16.9004Z"/></g><g><polygon class="cls-13" points="459.3519 214.4013 468.9017 231.6628 556.9707 231.6628 535.915 214.4013 459.3519 214.4013"/><path class="cls-2" d="M556.971,231.8435h-88.0693c-.0654,0-.126-.0361-.1582-.0928l-9.5498-17.2617c-.0312-.0566-.0303-.125,.0029-.1797,.0322-.0547,.0908-.0889,.1553-.0889h76.5635c.042,0,.082,.0146,.1143,.041l21.0557,17.2617c.0596,.0479,.082,.1289,.0557,.2002-.0254,.0723-.0938,.1201-.1699,.1201Zm-87.9629-.3613h87.457l-20.6143-16.9004h-76.1924l9.3496,16.9004Z"/></g><g class="cls-15"><polygon class="cls-11" points="561.1807 214.4013 586.0333 231.6628 674.1023 231.6628 637.7438 214.4013 561.1807 214.4013"/><path class="cls-2" d="M674.1018,231.8435h-88.0684c-.0371,0-.0732-.0117-.1035-.0322l-24.8525-17.2617c-.0645-.0449-.0928-.127-.0693-.2021,.0244-.0752,.0938-.127,.1729-.127h76.5625c.0264,0,.0537,.0059,.0771,.0176l36.3584,17.2617c.0771,.0361,.1182,.1201,.0986,.2031-.0186,.082-.0908,.1406-.1758,.1406Zm-88.0117-.3613h87.21l-35.5977-16.9004h-75.9443l24.332,16.9004Z"/></g><g class="cls-14"><polygon class="cls-12" points="703.1649 231.6628 663.0095 214.4013 739.5726 214.4013 791.2339 231.6628 703.1649 231.6628"/><path class="cls-2" d="M791.2337,231.8435h-88.0684c-.0244,0-.0488-.0049-.0713-.0146l-40.1562-17.2617c-.0791-.0342-.123-.1182-.1055-.2021,.0166-.084,.0908-.1445,.1768-.1445h76.5635c.0195,0,.0391,.0029,.0576,.0098l51.6611,17.2617c.084,.0273,.1348,.1123,.1211,.2002-.0146,.0869-.0898,.1514-.1787,.1514Zm-88.0312-.3613h86.9199l-50.5791-16.9004h-75.6562l39.3154,16.9004Z"/></g></g><path class="cls-2" d="M464.4104,264.9636h-27.6074c-.5527,0-1-.4473-1-1s.4473-1,1-1h27.6074c.5527,0,1,.4473,1,1s-.4473,1-1,1Z"/><g class="cls-15"><path class="cls-2" d="M572.9827,264.9636h-27.6064c-.5527,0-1-.4473-1-1s.4473-1,1-1h27.6064c.5527,0,1,.4473,1,1s-.4473,1-1,1Z"/></g><g class="cls-14"><path class="cls-2" d="M682.4505,264.9636h-27.6074c-.5527,0-1-.4473-1-1s.4473-1,1-1h27.6074c.5527,0,1,.4473,1,1s-.4473,1-1,1Z"/></g><path class="cls-2" d="M354.7083,264.9636h-27.6064c-.5527,0-1-.4473-1-1s.4473-1,1-1h27.6064c.5527,0,1,.4473,1,1s-.4473,1-1,1Z"/><g class="cls-15"><path class="cls-2" d="M246.8226,264.9636h-27.6064c-.5527,0-1-.4473-1-1s.4473-1,1-1h27.6064c.5527,0,1,.4473,1,1s-.4473,1-1,1Z"/></g><g class="cls-14"><path class="cls-2" d="M137.1214,264.9636h-27.6074c-.5527,0-1-.4473-1-1s.4473-1,1-1h27.6074c.5527,0,1,.4473,1,1s-.4473,1-1,1Z"/></g><g><g class="cls-14"><rect class="cls-6" x=".3753" y="231.6628" width="88.069" height="88.069"/><path class="cls-2" d="M88.4446,319.9617H.3753c-.127,0-.2295-.1025-.2295-.2295v-88.0693c0-.127,.1025-.2295,.2295-.2295H88.4446c.127,0,.2295,.1025,.2295,.2295v88.0693c0,.127-.1025,.2295-.2295,.2295Zm-87.8398-.459H88.2151v-87.6104H.6048v87.6104Z"/></g><g class="cls-15"><rect class="cls-7" x="117.5069" y="231.6628" width="88.069" height="88.069"/><path class="cls-2" d="M205.5755,319.9617H117.5071c-.127,0-.2295-.1025-.2295-.2295v-88.0693c0-.127,.1025-.2295,.2295-.2295h88.0684c.127,0,.2295,.1025,.2295,.2295v88.0693c0,.127-.1025,.2295-.2295,.2295Zm-87.8389-.459h87.6094v-87.6104H117.7366v87.6104Z"/></g><g><rect class="cls-28" x="234.6385" y="231.6628" width="88.069" height="88.069"/><path class="cls-2" d="M322.7073,319.9617h-88.0684c-.127,0-.2295-.1025-.2295-.2295v-88.0693c0-.127,.1025-.2295,.2295-.2295h88.0684c.127,0,.2295,.1025,.2295,.2295v88.0693c0,.127-.1025,.2295-.2295,.2295Zm-87.8389-.459h87.6094v-87.6104h-87.6094v87.6104Z"/></g><g><rect class="cls-29" x="351.7701" y="231.6628" width="88.069" height="88.069"/><path class="cls-2" d="M439.8392,319.9617h-88.0693c-.127,0-.2295-.1025-.2295-.2295v-88.0693c0-.127,.1025-.2295,.2295-.2295h88.0693c.127,0,.2295,.1025,.2295,.2295v88.0693c0,.127-.1025,.2295-.2295,.2295Zm-87.8398-.459h87.6104v-87.6104h-87.6104v87.6104Z"/></g><g><rect class="cls-27" x="468.9017" y="231.6628" width="88.069" height="88.069"/><path class="cls-2" d="M556.971,319.9617h-88.0693c-.127,0-.2295-.1025-.2295-.2295v-88.0693c0-.127,.1025-.2295,.2295-.2295h88.0693c.127,0,.2295,.1025,.2295,.2295v88.0693c0,.127-.1025,.2295-.2295,.2295Zm-87.8398-.459h87.6104v-87.6104h-87.6104v87.6104Z"/></g><g class="cls-15"><rect class="cls-26" x="586.0333" y="231.6628" width="88.069" height="88.069"/><path class="cls-2" d="M674.1018,319.9617h-88.0684c-.127,0-.2295-.1025-.2295-.2295v-88.0693c0-.127,.1025-.2295,.2295-.2295h88.0684c.127,0,.2295,.1025,.2295,.2295v88.0693c0,.127-.1025,.2295-.2295,.2295Zm-87.8389-.459h87.6094v-87.6104h-87.6094v87.6104Z"/></g><g class="cls-14"><rect class="cls-16" x="703.1649" y="231.6628" width="88.069" height="88.069"/><path class="cls-2" d="M791.2337,319.9617h-88.0684c-.127,0-.2295-.1025-.2295-.2295v-88.0693c0-.127,.1025-.2295,.2295-.2295h88.0684c.127,0,.2295,.1025,.2295,.2295v88.0693c0,.127-.1025,.2295-.2295,.2295Zm-87.8389-.459h87.6094v-87.6104h-87.6094v87.6104Z"/></g></g></g><g><g class="cls-15"><g class="cls-14"><polygon class="cls-3" points="143.844 108.0989 105.9794 129.141 170.5285 129.141 199.96 108.0989 143.844 108.0989"/><path class="cls-2" d="M170.5286,129.3748H105.9798c-.1064,0-.1992-.0723-.2256-.1748s.0195-.2109,.1123-.2627l37.8643-21.042c.0352-.0186,.0732-.0293,.1133-.0293h56.1162c.1016,0,.1914,.0654,.2217,.1621,.0312,.0967-.0039,.2021-.0859,.2607l-29.4316,21.042c-.04,.0283-.0869,.0439-.1357,.0439Zm-63.6494-.4668h63.5742l28.7803-20.5752h-55.3291l-37.0254,20.5752Z"/></g><g class="cls-15"><polygon class="cls-3" points="191.8296 129.141 218.4782 108.0989 274.5942 108.0989 256.3787 129.141 191.8296 129.141"/><path class="cls-2" d="M256.3792,129.3748h-64.5498c-.0996,0-.1875-.0635-.2197-.1572-.0332-.0938-.0029-.1973,.0752-.2588l26.6484-21.042c.041-.0332,.0918-.0508,.1445-.0508h56.1162c.0908,0,.1738,.0537,.2119,.1367s.0244,.1807-.0361,.249l-18.2148,21.042c-.0439,.0518-.1084,.0811-.1758,.0811Zm-63.8789-.4668h63.7725l17.8115-20.5752h-55.5254l-26.0586,20.5752Z"/></g><g><polygon class="cls-3" points="293.1124 108.0989 277.6798 129.141 342.2289 129.141 349.2284 108.0989 293.1124 108.0989"/><path class="cls-2" d="M342.2288,129.3748h-64.5488c-.0879,0-.168-.0498-.208-.1279-.0391-.0781-.0322-.1729,.0205-.2432l15.4326-21.042c.0439-.0596,.1133-.0957,.1875-.0957h56.1162c.0752,0,.1455,.0361,.1895,.0967,.043,.0615,.0557,.1396,.0312,.21l-7,21.042c-.0312,.0957-.1201,.1602-.2207,.1602Zm-64.0889-.4668h63.9209l6.8447-20.5752h-55.6748l-15.0908,20.5752Z"/></g><g><polygon class="cls-3" points="367.7466 108.0989 363.5301 129.141 428.0792 129.141 423.8626 108.0989 367.7466 108.0989"/><path class="cls-2" d="M428.0794,129.3748h-64.5498c-.0703,0-.1357-.0312-.1807-.0859-.0439-.0537-.0615-.125-.0479-.1934l4.2168-21.042c.0215-.1084,.1172-.1875,.2285-.1875h56.1162c.1113,0,.207,.0791,.2285,.1875l4.2168,21.042c.0137,.0684-.0039,.1396-.0479,.1934-.0449,.0547-.1104,.0859-.1807,.0859Zm-64.2656-.4668h63.9814l-4.124-20.5752h-55.7334l-4.124,20.5752Z"/></g><g><polygon class="cls-3" points="442.3808 108.0989 449.3803 129.141 513.9294 129.141 498.4968 108.0989 442.3808 108.0989"/><path class="cls-2" d="M513.929,129.3748h-64.5488c-.1006,0-.1895-.0645-.2207-.1602l-6.999-21.042c-.0244-.0703-.0117-.1484,.0312-.21,.0439-.0605,.1143-.0967,.1895-.0967h56.1152c.0742,0,.1436,.0361,.1875,.0957l15.4326,21.042c.0527,.0703,.0596,.165,.0205,.2432-.04,.0781-.1201,.1279-.208,.1279Zm-64.3809-.4668h63.9209l-15.0908-20.5752h-55.6738l6.8438,20.5752Z"/></g><g class="cls-15"><polygon class="cls-3" points="517.015 108.0989 535.2305 129.141 599.7796 129.141 573.1311 108.0989 517.015 108.0989"/><path class="cls-2" d="M599.7796,129.3748h-64.5488c-.0674,0-.1318-.0293-.1758-.0811l-18.2158-21.042c-.0605-.0684-.0742-.166-.0361-.249s.1211-.1367,.2119-.1367h56.1162c.0527,0,.1035,.0176,.1445,.0508l26.6484,21.042c.0781,.0615,.1084,.165,.0752,.2588-.0322,.0938-.1201,.1572-.2197,.1572Zm-64.4424-.4668h63.7715l-26.0586-20.5752h-55.5254l17.8125,20.5752Z"/></g><g class="cls-14"><polygon class="cls-3" points="621.0807 129.141 591.6493 108.0989 647.7653 108.0989 685.6298 129.141 621.0807 129.141"/><path class="cls-2" d="M685.6302,129.3748h-64.5498c-.0488,0-.0957-.0156-.1357-.0439l-29.4307-21.042c-.082-.0586-.1172-.1641-.0859-.2607,.0303-.0967,.1201-.1621,.2217-.1621h56.1152c.04,0,.0781,.0107,.1133,.0293l37.8652,21.042c.0928,.0518,.1387,.1602,.1123,.2627s-.1191,.1748-.2256,.1748Zm-64.4746-.4668h63.5752l-37.0264-20.5752h-55.3281l28.7793,20.5752Z"/></g></g><g><g class="cls-14"><path class="cls-2" d="M199.9602,108.2576h-56.1162c-.0869,0-.1582-.0713-.1582-.1582V51.9827c0-.0874,.0713-.1582,.1582-.1582h56.1162c.0869,0,.1582,.0708,.1582,.1582v56.1167c0,.0869-.0713,.1582-.1582,.1582Zm-55.958-.3164h55.7998V52.1409h-55.7998v55.8003Z"/></g><g class="cls-15"><path class="cls-2" d="M274.594,108.2576h-56.1162c-.0869,0-.1582-.0713-.1582-.1582V51.9827c0-.0874,.0713-.1582,.1582-.1582h56.1162c.0869,0,.1582,.0708,.1582,.1582v56.1167c0,.0869-.0713,.1582-.1582,.1582Zm-55.958-.3164h55.7998V52.1409h-55.7998v55.8003Z"/></g><path class="cls-2" d="M349.2288,108.2576h-56.1162c-.0869,0-.1582-.0713-.1582-.1582V51.9827c0-.0874,.0713-.1582,.1582-.1582h56.1162c.0869,0,.1582,.0708,.1582,.1582v56.1167c0,.0869-.0713,.1582-.1582,.1582Zm-55.958-.3164h55.7998V52.1409h-55.7998v55.8003Z"/><path class="cls-2" d="M423.8626,108.2576h-56.1162c-.0869,0-.1582-.0713-.1582-.1582V51.9827c0-.0874,.0713-.1582,.1582-.1582h56.1162c.0869,0,.1582,.0708,.1582,.1582v56.1167c0,.0869-.0713,.1582-.1582,.1582Zm-55.958-.3164h55.7998V52.1409h-55.7998v55.8003Z"/><path class="cls-2" d="M498.4964,108.2576h-56.1152c-.0869,0-.1582-.0713-.1582-.1582V51.9827c0-.0874,.0713-.1582,.1582-.1582h56.1152c.0869,0,.1582,.0708,.1582,.1582v56.1167c0,.0869-.0713,.1582-.1582,.1582Zm-55.957-.3164h55.7988V52.1409h-55.7988v55.8003Z"/><g class="cls-15"><path class="cls-2" d="M573.1311,108.2576h-56.1162c-.0869,0-.1582-.0713-.1582-.1582V51.9827c0-.0874,.0713-.1582,.1582-.1582h56.1162c.0869,0,.1582,.0708,.1582,.1582v56.1167c0,.0869-.0713,.1582-.1582,.1582Zm-55.958-.3164h55.7998V52.1409h-55.7998v55.8003Z"/></g><g class="cls-14"><path class="cls-2" d="M647.7649,108.2576h-56.1152c-.0869,0-.1582-.0713-.1582-.1582V51.9827c0-.0874,.0713-.1582,.1582-.1582h56.1152c.0869,0,.1582,.0708,.1582,.1582v56.1167c0,.0869-.0713,.1582-.1582,.1582Zm-55.957-.3164h55.7988V52.1409h-55.7988v55.8003Z"/></g></g><g><g class="cls-14"><polygon class="cls-22" points="143.844 51.9829 105.9794 64.6345 170.5285 64.6345 199.96 51.9829 143.844 51.9829"/><path class="cls-2" d="M170.5286,64.7668H105.9798c-.0645,0-.1201-.0469-.1309-.1108-.0107-.0645,.0273-.1265,.0889-.147l37.8643-12.6519c.0137-.0049,.0273-.0068,.042-.0068h56.1162c.0625,0,.1172,.0439,.1299,.1055s-.0195,.1235-.0771,.1484l-29.4316,12.6519c-.0166,.0073-.0352,.0107-.0527,.0107Zm-63.7344-.2646h63.707l28.8154-12.3872h-55.4512l-37.0713,12.3872Z"/></g><g class="cls-15"><polygon class="cls-24" points="191.8296 64.6345 218.4782 51.9829 274.5942 51.9829 256.3787 64.6345 191.8296 64.6345"/><path class="cls-2" d="M256.3792,64.7668h-64.5498c-.0615,0-.1152-.043-.1289-.103-.0137-.0605,.0166-.1226,.0723-.1489l26.6484-12.6519c.0176-.0083,.0371-.0127,.0566-.0127h56.1162c.0576,0,.1094,.0376,.126,.0928,.0176,.0552-.0029,.1152-.0508,.1484l-18.2148,12.6519c-.0215,.0151-.0479,.0234-.0752,.0234Zm-63.9619-.2646h63.9209l17.833-12.3872h-55.6631l-26.0908,12.3872Z"/></g><g><polygon class="cls-25" points="293.1124 51.9829 277.6798 64.6345 342.2289 64.6345 349.2284 51.9829 293.1124 51.9829"/><path class="cls-2" d="M342.2288,64.7668h-64.5488c-.0557,0-.1055-.0352-.125-.0879-.0186-.0527-.002-.1113,.041-.147l15.4326-12.6519c.0234-.0195,.0537-.0298,.084-.0298h56.1162c.0469,0,.0898,.0249,.1143,.0649,.0234,.0405,.0244,.0903,.002,.1313l-7,12.6519c-.0234,.0425-.0684,.0684-.1162,.0684Zm-64.1787-.2646h64.1006l6.8535-12.3872h-55.8447l-15.1094,12.3872Z"/></g><g><polygon class="cls-17" points="367.7466 51.9829 363.5301 64.6345 428.0792 64.6345 423.8626 51.9829 367.7466 51.9829"/><path class="cls-2" d="M428.0794,64.7668h-64.5498c-.043,0-.083-.0205-.1074-.0547-.0254-.0347-.0312-.0791-.0186-.1196l4.2168-12.6519c.0186-.0542,.0693-.0903,.126-.0903h56.1162c.0566,0,.1074,.0361,.126,.0903l4.2168,12.6519c.0127,.0405,.0068,.085-.0186,.1196-.0244,.0342-.0645,.0547-.1074,.0547Zm-64.3662-.2646h64.1826l-4.1289-12.3872h-55.9248l-4.1289,12.3872Z"/></g><g><polygon class="cls-23" points="442.3808 51.9829 449.3803 64.6345 513.9294 64.6345 498.4968 51.9829 442.3808 51.9829"/><path class="cls-2" d="M513.929,64.7668h-64.5488c-.0479,0-.0928-.0259-.1162-.0684l-6.999-12.6519c-.0225-.041-.0215-.0908,.002-.1313,.0244-.04,.0674-.0649,.1143-.0649h56.1152c.0303,0,.0605,.0103,.084,.0298l15.4326,12.6519c.043,.0356,.0596,.0942,.041,.147-.0195,.0527-.0693,.0879-.125,.0879Zm-64.4707-.2646h64.1006l-15.1094-12.3872h-55.8438l6.8525,12.3872Z"/></g><g class="cls-15"><polygon class="cls-19" points="517.015 51.9829 535.2305 64.6345 599.7796 64.6345 573.1311 51.9829 517.015 51.9829"/><path class="cls-2" d="M599.7796,64.7668h-64.5488c-.0273,0-.0537-.0083-.0752-.0234l-18.2158-12.6519c-.0479-.0332-.0684-.0933-.0508-.1484,.0166-.0552,.0684-.0928,.126-.0928h56.1162c.0195,0,.0391,.0044,.0566,.0127l26.6484,12.6519c.0557,.0264,.0859,.0884,.0723,.1489-.0137,.0601-.0674,.103-.1289,.103Zm-64.5078-.2646h63.9199l-26.0908-12.3872h-55.6631l17.834,12.3872Z"/></g><g class="cls-14"><polygon class="cls-20" points="621.0807 64.6345 591.6493 51.9829 647.7653 51.9829 685.6298 64.6345 621.0807 64.6345"/><path class="cls-2" d="M685.6302,64.7668h-64.5498c-.0176,0-.0361-.0034-.0527-.0107l-29.4307-12.6519c-.0576-.0249-.0898-.0869-.0771-.1484s.0674-.1055,.1299-.1055h56.1152c.0146,0,.0283,.002,.042,.0068l37.8652,12.6519c.0615,.0205,.0996,.0825,.0889,.147-.0107,.064-.0664,.1108-.1309,.1108Zm-64.5225-.2646h63.708l-37.0723-12.3872h-55.4502l28.8145,12.3872Z"/></g></g><path class="cls-2" d="M446.0882,89.0418h-20.2344c-.4053,0-.7334-.3281-.7334-.7334s.3281-.7334,.7334-.7334h20.2344c.4053,0,.7334,.3281,.7334,.7334s-.3281,.7334-.7334,.7334Z"/><g class="cls-15"><path class="cls-2" d="M525.6653,89.0418h-20.2344c-.4053,0-.7334-.3281-.7334-.7334s.3281-.7334,.7334-.7334h20.2344c.4053,0,.7334,.3281,.7334,.7334s-.3281,.7334-.7334,.7334Z"/></g><g class="cls-14"><path class="cls-2" d="M605.8977,89.0418h-20.2344c-.4053,0-.7334-.3281-.7334-.7334s.3281-.7334,.7334-.7334h20.2344c.4053,0,.7334,.3281,.7334,.7334s-.3281,.7334-.7334,.7334Z"/></g><path class="cls-2" d="M365.6839,89.0418h-20.2344c-.4053,0-.7334-.3281-.7334-.7334s.3281-.7334,.7334-.7334h20.2344c.4053,0,.7334,.3281,.7334,.7334s-.3281,.7334-.7334,.7334Z"/><g class="cls-15"><path class="cls-2" d="M286.6106,89.0418h-20.2344c-.4053,0-.7334-.3281-.7334-.7334s.3281-.7334,.7334-.7334h20.2344c.4053,0,.7334,.3281,.7334,.7334s-.3281,.7334-.7334,.7334Z"/></g><g class="cls-14"><path class="cls-2" d="M206.2054,89.0418h-20.2344c-.4053,0-.7334-.3281-.7334-.7334s.3281-.7334,.7334-.7334h20.2344c.4053,0,.7334,.3281,.7334,.7334s-.3281,.7334-.7334,.7334Z"/></g><g><g class="cls-14"><rect class="cls-18" x="105.9794" y="64.6345" width="64.5491" height="64.5491"/><path class="cls-2" d="M170.5286,129.3513H105.9798c-.0928,0-.168-.0752-.168-.168V64.6345c0-.0928,.0752-.1685,.168-.1685h64.5488c.0928,0,.168,.0757,.168,.1685v64.5488c0,.0928-.0752,.168-.168,.168Zm-64.3809-.3359h64.2129V64.803H106.1477v64.2124Z"/></g><g class="cls-15"><rect class="cls-21" x="191.8296" y="64.6345" width="64.5491" height="64.5491"/><path class="cls-2" d="M256.3792,129.3513h-64.5498c-.0928,0-.168-.0752-.168-.168V64.6345c0-.0928,.0752-.1685,.168-.1685h64.5498c.0928,0,.168,.0757,.168,.1685v64.5488c0,.0928-.0752,.168-.168,.168Zm-64.3818-.3359h64.2139V64.803h-64.2139v64.2124Z"/></g><g><rect class="cls-31" x="277.6798" y="64.6345" width="64.5491" height="64.5491"/><path class="cls-2" d="M342.2288,129.3513h-64.5488c-.0928,0-.168-.0752-.168-.168V64.6345c0-.0928,.0752-.1685,.168-.1685h64.5488c.0928,0,.168,.0757,.168,.1685v64.5488c0,.0928-.0752,.168-.168,.168Zm-64.3809-.3359h64.2129V64.803h-64.2129v64.2124Z"/></g><g><rect class="cls-33" x="363.5301" y="64.6345" width="64.5491" height="64.5491"/><path class="cls-2" d="M428.0794,129.3513h-64.5498c-.0928,0-.168-.0752-.168-.168V64.6345c0-.0928,.0752-.1685,.168-.1685h64.5498c.0928,0,.168,.0757,.168,.1685v64.5488c0,.0928-.0752,.168-.168,.168Zm-64.3818-.3359h64.2139V64.803h-64.2139v64.2124Z"/></g><g><rect class="cls-32" x="449.3803" y="64.6345" width="64.5491" height="64.5491"/><path class="cls-2" d="M513.929,129.3513h-64.5488c-.0928,0-.168-.0752-.168-.168V64.6345c0-.0928,.0752-.1685,.168-.1685h64.5488c.0928,0,.168,.0757,.168,.1685v64.5488c0,.0928-.0752,.168-.168,.168Zm-64.3809-.3359h64.2129V64.803h-64.2129v64.2124Z"/></g><g class="cls-15"><rect class="cls-30" x="535.2305" y="64.6345" width="64.5491" height="64.5491"/><path class="cls-2" d="M599.7796,129.3513h-64.5488c-.0928,0-.168-.0752-.168-.168V64.6345c0-.0928,.0752-.1685,.168-.1685h64.5488c.0928,0,.168,.0757,.168,.1685v64.5488c0,.0928-.0752,.168-.168,.168Zm-64.3809-.3359h64.2129V64.803h-64.2129v64.2124Z"/></g><g class="cls-14"><rect class="cls-34" x="621.0807" y="64.6345" width="64.5491" height="64.5491"/><path class="cls-2" d="M685.6302,129.3513h-64.5498c-.0928,0-.168-.0752-.168-.168V64.6345c0-.0928,.0752-.1685,.168-.1685h64.5498c.0928,0,.168,.0757,.168,.1685v64.5488c0,.0928-.0752,.168-.168,.168Zm-64.3818-.3359h64.2139V64.803h-64.2139v64.2124Z"/></g></g></g><g><g><polygon class="cls-4" points="600.9495 20.6018 185.472 20.6018 185.472 1.0847 186.472 1.0847 186.472 19.6018 599.9495 19.6018 599.9495 1.0847 600.9495 1.0847 600.9495 20.6018"/><polygon class="cls-4" points="181.8816 4.398 182.6141 5.0801 185.9705 1.4683 189.3279 5.0801 190.0603 4.398 185.9705 0 181.8816 4.398"/><polygon class="cls-4" points="604.5393 4.398 603.8069 5.0801 600.4505 1.4683 597.0931 5.0801 596.3606 4.398 600.4505 0 604.5393 4.398"/></g><g><rect class="cls-4" x="395.305" y="1.0847" width="1" height="37.1538"/><polygon class="cls-4" points="391.7149 4.398 392.4473 5.0801 395.8038 1.4683 399.1612 5.0801 399.8936 4.398 395.8038 0 391.7149 4.398"/><polygon class="cls-4" points="391.7149 34.9251 392.4473 34.243 395.8038 37.8548 399.1612 34.243 399.8936 34.9251 395.8038 39.3231 391.7149 34.9251"/></g></g><g><rect class="cls-4" x="395.305" y="164.616" width="1" height="37.1543"/><polygon class="cls-4" points="391.7149 167.9295 392.4473 168.6117 395.8038 164.9998 399.1612 168.6117 399.8936 167.9295 395.8038 163.5315 391.7149 167.9295"/><polygon class="cls-4" points="391.7149 198.4566 392.4473 197.7745 395.8038 201.3863 399.1612 197.7745 399.8936 198.4566 395.8038 202.8546 391.7149 198.4566"/></g></g></g></g></svg>