<svg width="80" height="80" viewBox="0 0 80 80" fill="none" xmlns="http://www.w3.org/2000/svg">
<path d="M39.985 78.82C61.4801 78.82 78.9054 61.3947 78.9054 39.8996C78.9054 18.4044 61.4801 0.979187 39.985 0.979187C18.4898 0.979187 1.06458 18.4044 1.06458 39.8996C1.06458 61.3947 18.4898 78.82 39.985 78.82Z" fill="#0C0C1C"/>
<path d="M39.9854 79.4795C18.1602 79.4795 0.405273 61.7241 0.405273 39.8994C0.405273 18.0747 18.1602 0.319275 39.9854 0.319275C61.8106 0.319275 79.5655 18.0747 79.5655 39.8994C79.5655 61.7241 61.8096 79.4795 39.9854 79.4795ZM39.9854 1.63867C18.8877 1.63867 1.72357 18.8022 1.72357 39.8994C1.72357 60.9966 18.8877 78.1601 39.9853 78.1601C61.0829 78.1601 78.246 60.9965 78.246 39.8994C78.246 18.8023 61.082 1.63867 39.9854 1.63867Z" fill="#26DB8D"/>
<path d="M39.9641 51.1741C46.1908 51.1741 51.2386 46.1264 51.2386 39.8996C51.2386 33.6729 46.1908 28.6251 39.9641 28.6251C33.7373 28.6251 28.6896 33.6729 28.6896 39.8996C28.6896 46.1264 33.7373 51.1741 39.9641 51.1741Z" fill="white"/>
<path d="M39.9642 52.3548C33.0969 52.3548 27.5093 46.7672 27.5093 39.8996C27.5093 33.032 33.0969 27.4447 39.9642 27.4447C46.8315 27.4447 52.4191 33.0319 52.4191 39.8996C52.4191 46.7673 46.8315 52.3548 39.9642 52.3548ZM39.9642 29.8058C34.3981 29.8058 29.8704 34.3339 29.8704 39.8996C29.8704 45.4653 34.3981 49.9938 39.9642 49.9938C45.5303 49.9938 50.058 45.4657 50.058 39.8996C50.058 34.3335 45.5303 29.8058 39.9642 29.8058Z" fill="#0E9DE5"/>
<path d="M32.4825 58.7011L32.3859 58.6591L33.3375 56.4982L33.4154 56.5332C37.769 58.2584 42.6066 58.1948 46.974 56.3274L47.9021 58.4982C42.9579 60.6126 37.482 60.6847 32.4825 58.7012V58.7011ZM21.2648 47.9066C19.2313 43.1533 19.218 37.522 21.2277 32.4565L23.4361 33.2926L23.4224 33.3272C21.6407 37.818 21.6455 42.7934 23.4359 46.9778L21.2649 47.9066H21.2648ZM58.7305 47.4274L56.5358 46.5567L56.566 46.4806C58.3258 42.0448 58.2539 37.1887 56.3642 32.8066L58.5327 31.8718C60.6717 36.8324 60.7528 42.3301 58.7607 47.3513L58.7305 47.4274ZM32.8568 23.3754L31.923 21.2065C36.5904 19.198 41.9309 19.1463 47.3669 21.0569L46.994 22.1782L46.5401 23.2682C41.717 21.5738 36.97 21.6051 32.8569 23.3754H32.8568Z" fill="white"/>
<path d="M28.4787 59.8817C25.4036 58.0437 22.7193 55.4379 20.7151 52.3461L22.6008 51.1245C24.4184 53.9293 26.8495 56.2908 29.6306 57.9536L28.4787 59.8817ZM52.4267 59.237L51.2629 57.315L51.3346 57.273C54.069 55.4928 56.3205 53.1172 57.9663 50.2488L59.915 51.3669C58.0902 54.5472 55.5951 57.1803 52.4989 59.1928L52.4267 59.2369V59.237ZM21.8707 29.5711L19.9432 28.4164C21.7155 25.4589 24.2092 22.8293 27.3563 20.601L28.0182 21.5091L28.6304 22.4507L28.6174 22.4592C25.7636 24.4813 23.4814 26.8825 21.8707 29.5712V29.5711ZM57.4134 28.6209L57.3565 28.533C55.5458 25.7487 53.1572 23.4897 50.2699 21.841L51.3847 19.8901C54.5392 21.6922 57.2611 24.2653 59.2542 27.3315L57.4132 28.6209H57.4134Z" fill="#26DB8D"/>
<path d="M20.715 38.4692H12.5273V40.8303H20.715V38.4692Z" fill="white"/>
<path d="M67.4425 38.4692H59.2548V40.8303H67.4425V38.4692Z" fill="white"/>
</svg>
