<svg width="248" height="34" viewBox="0 0 248 34" fill="none" xmlns="http://www.w3.org/2000/svg">
<g clip-path="url(#clip0_2479_6407)">
<path d="M7.31985 1.52373C7.88263 1.05972 8.50433 0.66932 9.1694 0.362305H0V4.22075H5.24167C5.71884 3.17967 6.42922 2.25775 7.31985 1.52373V1.52373Z" fill="white"/>
<path d="M16.7276 0.362305H13.3224C10.3826 0.362305 6.13135 2.63994 6.13135 7.57518C7.22935 4.1991 9.62696 4.22075 11.6902 4.22075H16.7276V0.362305Z" fill="#26DB8D"/>
<path d="M6.13135 7.57519V20.9511H10.6277V4.23657C8.85672 4.31105 7.04437 4.76726 6.13135 7.57519Z" fill="white"/>
<path d="M28.7705 0C35.1219 0 39.7437 4.44512 39.7437 10.6494C39.7437 16.8536 35.1219 21.299 28.7705 21.299C22.4505 21.299 17.8286 16.8539 17.8286 10.6494C17.8286 4.44486 22.4505 0 28.7705 0ZM28.7705 3.88931C24.9031 3.88931 22.4191 6.79087 22.4191 10.6494C22.4191 14.4772 24.9031 17.4097 28.7705 17.4097C32.6378 17.4097 35.1533 14.4772 35.1533 10.6494C35.1533 6.79087 32.6378 3.88931 28.7705 3.88931Z" fill="white"/>
<path d="M48.989 12.6866L47.3541 14.6004V20.9284H42.8892V0.3396H47.3541V9.53835L54.7742 0.3396H60.2768L51.9445 10.0011L60.8426 20.9283H55.3406L48.989 12.6866Z" fill="white"/>
<path d="M62.887 0.3396H77.7276V4.10543H67.3519V8.58111H77.5074V12.3474H67.3519V17.1317H77.7276V20.9284H62.887V0.3396Z" fill="white"/>
<path d="M85.6831 7.09964V20.9284H81.2185V0.3396H85.8089L95.5248 13.6743V0.3396H99.9894V20.9284H95.6821L85.6831 7.09964Z" fill="white"/>
<path d="M122.377 6.11185L116.466 20.9284H114.516L108.605 6.11185V20.9284H104.14V0.3396H110.397L115.491 13.1807L120.585 0.3396H126.873V20.9284H122.377V6.11185Z" fill="white"/>
<path d="M131.025 0.3396H135.49V20.9284H131.025V0.3396Z" fill="white"/>
<path d="M144.105 7.09964V20.9284H139.64V0.3396H144.23L153.946 13.6743V0.3396H158.411V20.9284H154.103L144.105 7.09964Z" fill="white"/>
<path d="M167.404 4.19809H161.272V0.3396H178V4.19809H171.9V20.9286H167.404V4.19809Z" fill="white"/>
<path d="M96.0933 26.0942H100.256C101.763 26.0942 102.533 27.0375 102.533 28.0735C102.557 28.4809 102.434 28.8835 102.184 29.2097C101.934 29.5359 101.575 29.7646 101.169 29.8553C101.611 29.9473 102.005 30.1892 102.283 30.5385C102.56 30.8877 102.704 31.322 102.687 31.7648C102.687 32.9291 101.893 33.8607 100.387 33.8607H96.0933V26.0942ZM99.8886 29.215C100.007 29.2218 100.126 29.2048 100.238 29.1649C100.35 29.125 100.452 29.0631 100.539 28.9829C100.626 28.9028 100.695 28.8061 100.742 28.6988C100.789 28.5915 100.813 28.4759 100.813 28.3591C100.813 28.2422 100.789 28.1266 100.742 28.0193C100.695 27.912 100.626 27.8154 100.539 27.7352C100.452 27.655 100.35 27.5931 100.238 27.5532C100.126 27.5133 100.007 27.4963 99.8886 27.5032H97.7771V29.215H99.8886ZM99.9478 32.4516C100.079 32.4675 100.211 32.4554 100.337 32.416C100.462 32.3765 100.577 32.3108 100.674 32.2233C100.771 32.1359 100.848 32.0287 100.899 31.9093C100.949 31.7899 100.973 31.6612 100.968 31.5319C100.969 31.4043 100.942 31.278 100.89 31.1612C100.838 31.0444 100.761 30.9397 100.665 30.854C100.568 30.7683 100.455 30.7034 100.331 30.6637C100.208 30.624 100.077 30.6103 99.9478 30.6235H97.7771V32.4516H99.9478Z" fill="white"/>
<path d="M106.695 30.6814L103.646 26.094H105.568L107.537 29.2147L109.482 26.094H111.403L108.379 30.6814V33.8603H106.695V30.6814Z" fill="white"/>
<path d="M122.371 30.6003H118.635V33.8606H116.951V26.0942H118.635V29.1449H122.371V26.0942H124.068V33.8606H122.371L122.371 30.6003Z" fill="white"/>
<path d="M130.256 25.9661C131.064 25.973 131.852 26.2144 132.52 26.66C133.188 27.1056 133.707 27.7353 134.011 28.4699C134.316 29.2045 134.391 30.0111 134.23 30.788C134.068 31.5649 133.675 32.2774 133.102 32.8357C132.528 33.394 131.799 33.7732 131.006 33.9254C130.213 34.0776 129.393 33.996 128.647 33.691C127.901 33.386 127.264 32.8711 126.816 32.2113C126.368 31.5515 126.129 30.7762 126.129 29.9832C126.113 29.4483 126.208 28.9158 126.41 28.4188C126.612 27.9218 126.916 27.4709 127.304 27.0942C127.691 26.7174 128.153 26.4228 128.661 26.2288C129.169 26.0347 129.712 25.9453 130.256 25.9661V25.9661ZM130.256 27.4332C128.798 27.4332 127.861 28.5277 127.861 29.9832C127.861 31.4267 128.798 32.5328 130.256 32.5328C131.715 32.5328 132.664 31.4267 132.664 29.9832C132.664 28.5277 131.715 27.4332 130.256 27.4332Z" fill="white"/>
<path d="M139.387 31.0781H138.154V33.8607H136.469V26.0942H140.17C141.818 26.0942 142.826 27.1538 142.826 28.5976C142.86 29.1204 142.705 29.6381 142.388 30.0597C142.071 30.4812 141.613 30.7798 141.095 30.9029L142.874 33.8606H140.941L139.387 31.0781ZM139.921 27.515H138.154V29.6575H139.921C140.071 29.6698 140.223 29.6513 140.367 29.603C140.51 29.5548 140.641 29.4779 140.753 29.3772C140.864 29.2765 140.953 29.1542 141.014 29.0181C141.075 28.882 141.106 28.7349 141.106 28.5862C141.106 28.4375 141.075 28.2905 141.014 28.1543C140.953 28.0182 140.864 27.8959 140.753 27.7952C140.641 27.6946 140.51 27.6177 140.367 27.5694C140.223 27.5212 140.071 27.5026 139.921 27.515V27.515Z" fill="white"/>
<path d="M144.983 26.0942H146.668V33.8606H144.983V26.0942Z" fill="white"/>
<path d="M148.836 32.5213L152.572 27.5496H148.836V26.0942H154.779V27.4216L151.043 32.4049H154.861V33.8604H148.836V32.5213Z" fill="white"/>
<path d="M157.031 26.0942H162.629V27.5148H158.715V29.203H162.546V30.6237H158.715V32.4285H162.629V33.8608H157.031V26.0942Z" fill="white"/>
<path d="M166.517 28.6442V33.8606H164.833V26.0942H166.564L170.229 31.1244V26.0942H171.913V33.8606H170.288L166.517 28.6442Z" fill="white"/>
</g>
<rect x="190.5" y="0.5" width="57" height="19" rx="4.5" stroke="#26DB8D"/>
<path d="M202.979 14L199.895 5.996H197.759L194.663 14H196.607L197.111 12.644H200.543L201.035 14H202.979ZM200.075 11.144H197.579L198.827 7.7L200.075 11.144ZM211.207 14V12.5H207.823V5.996H206.119V14H211.207ZM216.504 14V11.156H218.544C220.272 11.156 221.232 9.968 221.232 8.576C221.232 7.172 220.284 5.996 218.544 5.996H214.8V14H216.504ZM218.316 9.656H216.504V7.496H218.316C218.988 7.496 219.492 7.904 219.492 8.576C219.492 9.236 218.988 9.656 218.316 9.656ZM231.888 14V5.996H230.172V9.14H226.392V5.996H224.688V14H226.392V10.64H230.172V14H231.888ZM243.329 14L240.245 5.996H238.109L235.013 14H236.957L237.461 12.644H240.893L241.385 14H243.329ZM240.425 11.144H237.929L239.177 7.7L240.425 11.144Z" fill="white"/>
<defs>
<clipPath id="clip0_2479_6407">
<rect width="178" height="34" fill="white"/>
</clipPath>
</defs>
</svg>
