<?xml version="1.0" encoding="UTF-8"?><svg xmlns="http://www.w3.org/2000/svg" xmlns:xlink="http://www.w3.org/1999/xlink" viewBox="0 0 31.59 31.89"><defs><style>.e{fill:#fff;}.f{fill:url(#c);}.g{fill:url(#d);}</style><radialGradient id="c" cx="23.62" cy="8.51" fx="23.62" fy="8.51" r="17.52" gradientTransform="matrix(1, 0, 0, 1, 0, 0)" gradientUnits="userSpaceOnUse"><stop offset=".1" stop-color="#26db8d"/><stop offset=".26" stop-color="#22d299"/><stop offset=".56" stop-color="#19baba"/><stop offset=".89" stop-color="#0e9de5"/></radialGradient><radialGradient id="d" cx="23.62" cy="8.51" fx="23.62" fy="8.51" r="17.52" xlink:href="#c"/></defs><g id="a"/><g id="b"><g><path class="e" d="M15.95,27.53c-6.38,0-11.59-5.19-11.59-11.58S9.57,4.36,15.95,4.36c3.21,0,6.12,1.31,8.22,3.43l4.15-1.91C25.4,2.29,20.94,0,15.95,0,7.15,0,0,7.14,0,15.95s7.15,15.94,15.95,15.94c4.99,0,9.45-2.29,12.37-5.88l-4.15-1.91c-2.1,2.12-5.01,3.43-8.22,3.43Z"/><circle class="f" cx="15.95" cy="15.94" r="6.64"/><circle class="g" cx="28.74" cy="15.94" r="2.85"/></g></g></svg>